<svg xmlns="http://www.w3.org/2000/svg" viewBox="0 0 282.93 70.78" width="283" height="71">
	<defs>
		<style>.cls-1{fill:#005b7b;}.cls-2{fill:#06a5e0;}</style>
	</defs>
	<path class="cls-1"
				d="M280.48,17.11a2.42,2.42,0,0,0-2.41,2.42v.12a11.59,11.59,0,1,0,0,18.06V41.5A6.79,6.79,0,0,1,273.71,48a8.87,8.87,0,0,1-9.59-1.91,2.42,2.42,0,0,0-3.44,3.4,13.66,13.66,0,0,0,9.74,4,13.49,13.49,0,0,0,5.13-1,11.52,11.52,0,0,0,7.38-10.95c0-2.4,0-19.21,0-19.21V19.52A2.42,2.42,0,0,0,280.48,17.11Zm-9.63,18.34a6.76,6.76,0,1,1,6.74-6.78A6.76,6.76,0,0,1,270.85,35.45Z"/>
	<path class="cls-1"
				d="M250.52,17.05a7.19,7.19,0,0,0-5.1,1.95,7.64,7.64,0,0,0-5.13-1.95c-3.48,0-7.54,2.19-7.54,8.37v7.47A2.76,2.76,0,0,1,232,35a2.5,2.5,0,0,1-1.75.63,2.91,2.91,0,0,1-3-3.16,2.58,2.58,0,0,0,0-.39c0-.26,0-.51,0-.78V19.41a2.42,2.42,0,1,0-4.83,0V31.32c0,2-.67,3.4-1.87,4a3.13,3.13,0,0,1-3.17-.28c-1.93-1.49-5.71-4.81-8.12-7l9-6.74a2.41,2.41,0,0,0-2.9-3.86l-7.72,5.79V10.59a2.42,2.42,0,0,0-4.83,0V32.06a3.52,3.52,0,0,1-.93,2.68,3.16,3.16,0,0,1-2.16.75c-1.43,0-3.7-.85-3.7-3.15,0-3.94,0-12.81,0-12.81a2.41,2.41,0,0,0-2.41-2.42h0l-7.87.05a2.4,2.4,0,0,0-2.25,1.57l-.06.16a7.92,7.92,0,0,1-3.53,4.73A11.55,11.55,0,0,0,161.1,20.7h-8.44a2.42,2.42,0,0,0-2.42,2.42V33.63c0,2.24-1.43,2.58-2.28,2.58-.27,0-2.65-.06-2.65-2.08V21.93a2.42,2.42,0,1,0-4.83,0V34.17a2.17,2.17,0,0,1-2.35,2.29,2.45,2.45,0,0,1-2.6-2.62V32.33c0-4.16,0-8.65,0-9.35s-.12-3.15-2.09-4c-2.14-1-4.3.81-5.87,2.11a17.91,17.91,0,0,1-2.26,1.56,11.58,11.58,0,0,0-21.15,8.66L98,34.56l-.17.11-.12,0a6.76,6.76,0,1,1,.3-11.9,2.42,2.42,0,0,0,2.42-4.19A11.6,11.6,0,1,0,99.93,39a1.94,1.94,0,0,0,.24-.15,1,1,0,0,0,.16-.06l5.86-3.16a11.58,11.58,0,0,0,20.84-7,10,10,0,0,0-.11-1.46,20.79,20.79,0,0,0,3.7-2.45l.08-.07c0,2.12,0,5.77,0,7.61v1.52a7.29,7.29,0,0,0,7.43,7.45,7.47,7.47,0,0,0,5-1.85A8.11,8.11,0,0,0,148,41a7,7,0,0,0,7.11-7.41v-8.1h3.26a11.77,11.77,0,0,0-.45,3.16,11.6,11.6,0,0,0,23.19,0c0-.09,0-.18,0-.27A11.42,11.42,0,0,0,187.4,22l3.79,0c0,2.92,0,7.75,0,10.38,0,5,4.34,8,8.53,8A7.62,7.62,0,0,0,207.58,33c2.33,2.06,5.19,4.53,6.87,5.82a7.75,7.75,0,0,0,4.75,1.6,7.93,7.93,0,0,0,3.49-.81,7.82,7.82,0,0,0,2-1.43,8,8,0,0,0,5.55,2.27,7.37,7.37,0,0,0,5-1.93,7.47,7.47,0,0,0,2.3-5.67V25.42c0-3.54,2-3.54,2.7-3.54s2.7.22,2.7,3V37.81a2.42,2.42,0,1,0,4.83,0V25.39c0-3.51,2-3.51,2.7-3.51a2.7,2.7,0,0,1,2.7,3V37.81a2.42,2.42,0,0,0,4.84,0V24.88A7.52,7.52,0,0,0,250.52,17.05ZM120.58,24.31a19.15,19.15,0,0,1-5.33.11,10.45,10.45,0,0,1-3.79-1.19,6.74,6.74,0,0,1,9.12,1.08Zm-5.15,11.14a6.77,6.77,0,0,1-6.76-6.76,6.3,6.3,0,0,1,.15-1.39,15.26,15.26,0,0,0,5.91,1.92,23.68,23.68,0,0,0,7.45-.31A6.76,6.76,0,0,1,115.43,35.45ZM175,24.74a28.09,28.09,0,0,1-5.48-.51A13.06,13.06,0,0,1,165.9,23a6.73,6.73,0,0,1,9,1.78Zm-5.47,10.71A6.75,6.75,0,0,1,163,26.88,19.47,19.47,0,0,0,168.6,29a30,30,0,0,0,7.59.51A6.78,6.78,0,0,1,169.48,35.45Z"/>
	<path class="cls-2" d="M227.59,10.7a3,3,0,1,1-3-3A3,3,0,0,1,227.59,10.7Z"/>
	<path class="cls-1"
				d="M45.56,48.32,44.12,46A18.19,18.19,0,0,0,43,44.49c-1.26-1.61-2.41-1-3.7-.15A19.58,19.58,0,1,1,28.24,8.65a19.32,19.32,0,0,1,8.45,1.95,2,2,0,0,0,2.63-.81,32.24,32.24,0,0,0,2.11-3.94c.72-1.66-.18-2.58-1.29-3.2a28.23,28.23,0,1,0-11.9,53.82A28.06,28.06,0,0,0,44.49,51.3C46.07,50.14,46,49.09,45.56,48.32Z"/>
	<path class="cls-2"
				d="M38.94,14.31A28.26,28.26,0,0,0,12.41,32.88a16.5,16.5,0,0,0,7,9.25,19.62,19.62,0,1,1,9.84,17.39c-.32,0-.65,0-1,0a31.08,31.08,0,0,1-14-3.3A28.23,28.23,0,1,0,38.94,14.31Z"/>
	<path class="cls-2"
				d="M87.34,50.89v2.72a.34.34,0,0,1-.34.33H84.69a.3.3,0,0,1-.23-.1.3.3,0,0,1-.11-.23V45.73a.34.34,0,0,1,.33-.33h3.21a9.76,9.76,0,0,1,1.82.15A4,4,0,0,1,91,46a2.15,2.15,0,0,1,.79.85,2.77,2.77,0,0,1,.26,1.24,2.47,2.47,0,0,1-.91,2.13,4.32,4.32,0,0,1-2.7.66Zm0-3.49v1.54l.55,0c.88,0,1.32-.23,1.32-.79a.73.73,0,0,0-.33-.64,1.39,1.39,0,0,0-.91-.18Z"/>
	<path class="cls-2"
				d="M106.69,53.94a.35.35,0,0,1-.17-.06.25.25,0,0,1-.12-.13l-.56-1.06h-4.08l-.55,1.06a.4.4,0,0,1-.13.13.32.32,0,0,1-.18.06H98.65a.36.36,0,0,1-.32-.15.32.32,0,0,1,0-.34l4.48-7.87a.22.22,0,0,1,.13-.12.32.32,0,0,1,.16-.06H105a.29.29,0,0,1,.16.06.33.33,0,0,1,.13.13l4.21,7.87a.32.32,0,0,1,0,.33.31.31,0,0,1-.3.15Zm-3.86-3.17h2l-1-1.89Z"/>
	<path class="cls-2"
				d="M124.62,45.4a.34.34,0,0,1,.32.19.31.31,0,0,1,0,.36l-3.79,4.57v3.09a.32.32,0,0,1-.09.23.33.33,0,0,1-.24.1h-2.44a.3.3,0,0,1-.23-.1.33.33,0,0,1-.1-.23V50.52L114.2,46a.31.31,0,0,1-.06-.36.34.34,0,0,1,.32-.19h2.82a.56.56,0,0,1,.15,0l.12.08,2.21,2.74,2-2.71s0-.07.12-.1a.37.37,0,0,1,.15-.05Z"/>
	<path class="cls-2"
				d="M139.67,52.42a2.44,2.44,0,0,1-.76.9,3.47,3.47,0,0,1-1.21.56,6.13,6.13,0,0,1-1.61.19c-.32,0-.63,0-1,0s-.63-.06-.94-.11l-.19,0-.17,0h0l-.54-.1-.34-.07a.32.32,0,0,1-.17-.11.26.26,0,0,1-.09-.19l-.18-2.06a.31.31,0,0,1,.13-.31.32.32,0,0,1,.34,0c.36.17.85.37,1.48.6a5.64,5.64,0,0,0,1.78.32,2.19,2.19,0,0,0,.79-.12c.19-.08.3-.19.3-.34s-.06-.16-.18-.24a4.6,4.6,0,0,0-1.28-.37,6.36,6.36,0,0,1-2.62-1,2.25,2.25,0,0,1-.79-1.83,2.4,2.4,0,0,1,1-2.08,4.58,4.58,0,0,1,2.72-.71,9.39,9.39,0,0,1,1.62.15l.73.14.51.13a.42.42,0,0,1,.16.11.36.36,0,0,1,.08.18l.22,1.9a.33.33,0,0,1-.13.32.28.28,0,0,1-.34,0,6.58,6.58,0,0,0-.71-.3,7.71,7.71,0,0,0-.77-.27,5.44,5.44,0,0,0-1.45-.22,2.92,2.92,0,0,0-.75.07c-.18.05-.27.14-.27.26s.09.21.27.28l.61.19a8.56,8.56,0,0,0,.85.19,4.75,4.75,0,0,1,2.42,1,2.37,2.37,0,0,1,.73,1.78A2.74,2.74,0,0,1,139.67,52.42Z"/>
	<path class="cls-2"
				d="M159.62,53.94a.3.3,0,0,1-.23-.1.33.33,0,0,1-.1-.23V45.73a.34.34,0,0,1,.33-.33H164a3.33,3.33,0,0,1,1,.15,2.85,2.85,0,0,1,.83.43,2.17,2.17,0,0,1,.58.68,1.75,1.75,0,0,1,.2.87,2,2,0,0,1-.26,1,1.86,1.86,0,0,1-.82.74,2.2,2.2,0,0,1,.87.57,2.4,2.4,0,0,1,.54,1.62,2.21,2.21,0,0,1-.84,1.79,3.24,3.24,0,0,1-2.07.64Zm2.58-6.59v1.36h.66a1.07,1.07,0,0,0,.67-.2.6.6,0,0,0,.26-.46.61.61,0,0,0-.25-.49,1,1,0,0,0-.67-.21Zm0,3V52H163a1.22,1.22,0,0,0,.76-.22.68.68,0,0,0,.3-.58.73.73,0,0,0-.29-.6,1.14,1.14,0,0,0-.74-.22Z"/>
	<path class="cls-2"
				d="M183.42,53.94a.32.32,0,0,1-.17-.06.27.27,0,0,1-.13-.13l-.55-1.06h-4.08l-.56,1.06a.33.33,0,0,1-.13.13.32.32,0,0,1-.17.06h-2.26a.34.34,0,0,1-.31-.15.29.29,0,0,1,0-.34l4.47-7.87a.26.26,0,0,1,.13-.12.35.35,0,0,1,.16-.06h1.93a.32.32,0,0,1,.17.06.4.4,0,0,1,.13.13l4.21,7.87a.32.32,0,0,1,0,.33.33.33,0,0,1-.31.15Zm-3.87-3.17h2l-1-1.89Z"/>
	<path class="cls-2"
				d="M201.68,52.42a2.47,2.47,0,0,1-.77.9,3.51,3.51,0,0,1-1.2.56,6.13,6.13,0,0,1-1.61.19c-.32,0-.64,0-.95,0s-.63-.06-.94-.11l-.19,0a.47.47,0,0,1-.17,0h0l-.54-.1-.34-.07a.34.34,0,0,1-.18-.11.37.37,0,0,1-.09-.19l-.17-2.06a.31.31,0,0,1,.13-.31.32.32,0,0,1,.34,0c.35.17.85.37,1.48.6a5.54,5.54,0,0,0,1.77.32,2.15,2.15,0,0,0,.79-.12c.2-.08.3-.19.3-.34s-.06-.16-.17-.24a4.59,4.59,0,0,0-1.29-.37,6.36,6.36,0,0,1-2.61-1,2.25,2.25,0,0,1-.79-1.83,2.4,2.4,0,0,1,1-2.08,4.56,4.56,0,0,1,2.72-.71,9.57,9.57,0,0,1,1.62.15l.72.14.52.13a.42.42,0,0,1,.16.11.48.48,0,0,1,.08.18l.22,1.9a.33.33,0,0,1-.13.32.29.29,0,0,1-.34,0,7.56,7.56,0,0,0-.71-.3c-.25-.1-.5-.19-.77-.27a5.44,5.44,0,0,0-1.45-.22,3,3,0,0,0-.76.07c-.17.05-.26.14-.26.26s.09.21.27.28l.61.19a8.56,8.56,0,0,0,.85.19,4.7,4.7,0,0,1,2.41,1,2.34,2.34,0,0,1,.73,1.78A2.88,2.88,0,0,1,201.68,52.42Z"/>
	<path class="cls-2"
				d="M220.45,54.8a.3.3,0,0,1-.09.15.33.33,0,0,1-.14.1l-.16,0-.24,0-.27,0h-.27a4,4,0,0,1-2.78-1,.46.46,0,0,1-.07-.07l-.1-.07h-.8a5.79,5.79,0,0,1-3.81-1.1,4.13,4.13,0,0,1-1.31-3.34,4.17,4.17,0,0,1,1.31-3.36,7.11,7.11,0,0,1,7.63,0,4.17,4.17,0,0,1,1.31,3.36A4.12,4.12,0,0,1,219.31,53l-.1.1.29,0a1.83,1.83,0,0,0,.34,0h.3a.8.8,0,0,0,.15,0,.32.32,0,0,1,.42.39Zm-3.35-6.6a2.79,2.79,0,0,0-3.13,0,1.85,1.85,0,0,0-.53,1.43A1.82,1.82,0,0,0,214,51a2.79,2.79,0,0,0,3.13,0,1.82,1.82,0,0,0,.53-1.41A1.85,1.85,0,0,0,217.1,48.2Z"/>
	<path class="cls-2"
				d="M235.11,45.72a.34.34,0,0,1,.1-.23.37.37,0,0,1,.24-.1h2.24a.33.33,0,0,1,.23.1.3.3,0,0,1,.1.23v5.53a2.31,2.31,0,0,1-1.21,2.23,7.05,7.05,0,0,1-3.22.59,6.87,6.87,0,0,1-3.23-.59,2.43,2.43,0,0,1-1.17-2.34V45.72a.3.3,0,0,1,.1-.23.33.33,0,0,1,.24-.1h2.23a.37.37,0,0,1,.24.1.3.3,0,0,1,.1.23V50.2a1.39,1.39,0,0,0,.35,1.07,1.77,1.77,0,0,0,1.18.32,1.59,1.59,0,0,0,1.13-.33,1.44,1.44,0,0,0,.35-1.09Z"/>
	<path class="cls-2"
				d="M246.82,53.94a.34.34,0,0,1-.33-.33V45.73a.3.3,0,0,1,.1-.23.33.33,0,0,1,.23-.1h6.34a.33.33,0,0,1,.23.1.3.3,0,0,1,.1.23v1.59a.34.34,0,0,1-.33.34H249.5v.87h3.13a.3.3,0,0,1,.23.1.32.32,0,0,1,.1.22v1.57a.33.33,0,0,1-.1.24.3.3,0,0,1-.23.1H249.5v.92h4a.32.32,0,0,1,.23.09.36.36,0,0,1,.09.24v1.59a.32.32,0,0,1-.09.23.29.29,0,0,1-.23.1Z"/>
</svg>